<?xml version="1.0" encoding="UTF-8" standalone="no"?>
<!DOCTYPE svg PUBLIC "-//W3C//DTD SVG 1.1//EN"
 "http://www.w3.org/Graphics/SVG/1.1/DTD/svg11.dtd">
<!-- Generated by graphviz version 2.24.0 (20090616.2323)
 -->
<!-- Title: G Pages: 1 -->
<svg width="635pt" height="1196pt"
 viewBox="0.00 0.00 635.00 1196.00" xmlns="http://www.w3.org/2000/svg" xmlns:xlink="http://www.w3.org/1999/xlink">
<g id="graph1" class="graph" transform="scale(1 1) rotate(0) translate(4 1192)">
<title>G</title>
<polygon fill="white" stroke="white" points="-4,5 -4,-1192 632,-1192 632,5 -4,5"/>
<!-- &quot;Succinate:CoA ligase (ADP&#45;forming)&quot; -->
<g id="node1" class="node"><title>&quot;Succinate:CoA ligase (ADP&#45;forming)&quot;</title>
<polygon fill="none" stroke="black" points="537,-684 291,-684 291,-648 537,-648 537,-684"/>
<text text-anchor="middle" x="414" y="-660.4" font-family="Times,serif" font-size="14.00">&quot;Succinate:CoA ligase (ADP&#45;forming)&quot;</text>
</g>
<!-- &quot;ADP&quot; -->
<g id="node2" class="node"><title>&quot;ADP&quot;</title>
<ellipse fill="none" stroke="black" cx="290" cy="-594" rx="36.0055" ry="18"/>
<text text-anchor="middle" x="290" y="-588.4" font-family="Times,serif" font-size="14.00">&quot;ADP&quot;</text>
</g>
<!-- &quot;Succinate:CoA ligase (ADP&#45;forming)&quot;&#45;&gt;&quot;ADP&quot; -->
<g id="edge2" class="edge"><title>&quot;Succinate:CoA ligase (ADP&#45;forming)&quot;&#45;&gt;&quot;ADP&quot;</title>
<path fill="none" stroke="black" d="M382.71,-647.831C364.336,-637.163 341.148,-623.699 322.559,-612.905"/>
<polygon fill="black" stroke="black" points="324.25,-609.84 313.844,-607.845 320.735,-615.893 324.25,-609.84"/>
</g>
<!-- &quot;Succinyl&#45;CoA&quot; -->
<g id="node6" class="node"><title>&quot;Succinyl&#45;CoA&quot;</title>
<ellipse fill="none" stroke="black" cx="414" cy="-594" rx="70.246" ry="18"/>
<text text-anchor="middle" x="414" y="-588.4" font-family="Times,serif" font-size="14.00">&quot;Succinyl&#45;CoA&quot;</text>
</g>
<!-- &quot;Succinate:CoA ligase (ADP&#45;forming)&quot;&#45;&gt;&quot;Succinyl&#45;CoA&quot; -->
<g id="edge6" class="edge"><title>&quot;Succinate:CoA ligase (ADP&#45;forming)&quot;&#45;&gt;&quot;Succinyl&#45;CoA&quot;</title>
<path fill="none" stroke="black" d="M414,-647.831C414,-640.131 414,-630.974 414,-622.417"/>
<polygon fill="black" stroke="black" points="417.5,-622.413 414,-612.413 410.5,-622.413 417.5,-622.413"/>
</g>
<!-- &quot;Succinate&quot; -->
<g id="node4" class="node"><title>&quot;Succinate&quot;</title>
<ellipse fill="none" stroke="black" cx="414" cy="-738" rx="53.0608" ry="18"/>
<text text-anchor="middle" x="414" y="-732.4" font-family="Times,serif" font-size="14.00">&quot;Succinate&quot;</text>
</g>
<!-- &quot;Succinate&quot;&#45;&gt;&quot;Succinate:CoA ligase (ADP&#45;forming)&quot; -->
<g id="edge4" class="edge"><title>&quot;Succinate&quot;&#45;&gt;&quot;Succinate:CoA ligase (ADP&#45;forming)&quot;</title>
<path fill="none" stroke="black" d="M414,-719.831C414,-712.131 414,-702.974 414,-694.417"/>
<polygon fill="black" stroke="black" points="417.5,-694.413 414,-684.413 410.5,-694.413 417.5,-694.413"/>
</g>
<!-- &quot;Succinyl&#45;CoA:dihydrolipoamide S&#45;succinyltransferase&quot; -->
<g id="node15" class="node"><title>&quot;Succinyl&#45;CoA:dihydrolipoamide S&#45;succinyltransferase&quot;</title>
<polygon fill="none" stroke="black" points="484,-540 140,-540 140,-504 484,-504 484,-540"/>
<text text-anchor="middle" x="312" y="-516.4" font-family="Times,serif" font-size="14.00">&quot;Succinyl&#45;CoA:dihydrolipoamide S&#45;succinyltransferase&quot;</text>
</g>
<!-- &quot;Succinyl&#45;CoA&quot;&#45;&gt;&quot;Succinyl&#45;CoA:dihydrolipoamide S&#45;succinyltransferase&quot; -->
<g id="edge20" class="edge"><title>&quot;Succinyl&#45;CoA&quot;&#45;&gt;&quot;Succinyl&#45;CoA:dihydrolipoamide S&#45;succinyltransferase&quot;</title>
<path fill="none" stroke="black" d="M389.827,-576.937C376.728,-567.69 360.327,-556.113 345.964,-545.974"/>
<polygon fill="black" stroke="black" points="347.97,-543.107 337.782,-540.199 343.933,-548.825 347.97,-543.107"/>
</g>
<!-- &quot;CoA&quot; -->
<g id="node8" class="node"><title>&quot;CoA&quot;</title>
<ellipse fill="none" stroke="black" cx="500" cy="-450" rx="34.8756" ry="18"/>
<text text-anchor="middle" x="500" y="-444.4" font-family="Times,serif" font-size="14.00">&quot;CoA&quot;</text>
</g>
<!-- &quot;CoA&quot;&#45;&gt;&quot;Succinate:CoA ligase (ADP&#45;forming)&quot; -->
<g id="edge8" class="edge"><title>&quot;CoA&quot;&#45;&gt;&quot;Succinate:CoA ligase (ADP&#45;forming)&quot;</title>
<path fill="none" stroke="black" d="M504.123,-467.924C510.343,-499.356 518.843,-565.492 493,-612 486.117,-624.387 475.05,-634.514 463.352,-642.512"/>
<polygon fill="black" stroke="black" points="461.338,-639.646 454.773,-647.962 465.091,-645.554 461.338,-639.646"/>
</g>
<!-- &quot;(S)&#45;Malate hydro&#45;lyase&quot; -->
<g id="node10" class="node"><title>&quot;(S)&#45;Malate hydro&#45;lyase&quot;</title>
<polygon fill="none" stroke="black" points="491,-972 329,-972 329,-936 491,-936 491,-972"/>
<text text-anchor="middle" x="410" y="-948.4" font-family="Times,serif" font-size="14.00">&quot;(S)&#45;Malate hydro&#45;lyase&quot;</text>
</g>
<!-- &quot;Fumarate&quot; -->
<g id="node11" class="node"><title>&quot;Fumarate&quot;</title>
<ellipse fill="none" stroke="black" cx="410" cy="-882" rx="51.1658" ry="18"/>
<text text-anchor="middle" x="410" y="-876.4" font-family="Times,serif" font-size="14.00">&quot;Fumarate&quot;</text>
</g>
<!-- &quot;(S)&#45;Malate hydro&#45;lyase&quot;&#45;&gt;&quot;Fumarate&quot; -->
<g id="edge10" class="edge"><title>&quot;(S)&#45;Malate hydro&#45;lyase&quot;&#45;&gt;&quot;Fumarate&quot;</title>
<path fill="none" stroke="black" d="M410,-935.831C410,-928.131 410,-918.974 410,-910.417"/>
<polygon fill="black" stroke="black" points="413.5,-910.413 410,-900.413 406.5,-910.413 413.5,-910.413"/>
</g>
<!-- &quot;Succinate:(acceptor) oxidoreductase (R)&quot; -->
<g id="node33" class="node"><title>&quot;Succinate:(acceptor) oxidoreductase (R)&quot;</title>
<polygon fill="none" stroke="black" points="596,-828 338,-828 338,-792 596,-792 596,-828"/>
<text text-anchor="middle" x="467" y="-804.4" font-family="Times,serif" font-size="14.00">&quot;Succinate:(acceptor) oxidoreductase (R)&quot;</text>
</g>
<!-- &quot;Fumarate&quot;&#45;&gt;&quot;Succinate:(acceptor) oxidoreductase (R)&quot; -->
<g id="edge36" class="edge"><title>&quot;Fumarate&quot;&#45;&gt;&quot;Succinate:(acceptor) oxidoreductase (R)&quot;</title>
<path fill="none" stroke="black" d="M423.798,-864.571C430.577,-856.008 438.883,-845.516 446.395,-836.027"/>
<polygon fill="black" stroke="black" points="449.271,-838.034 452.734,-828.021 443.782,-833.689 449.271,-838.034"/>
</g>
<!-- &quot;(S)&#45;Malate&quot; -->
<g id="node13" class="node"><title>&quot;(S)&#45;Malate&quot;</title>
<ellipse fill="none" stroke="black" cx="410" cy="-1026" rx="56.8509" ry="18"/>
<text text-anchor="middle" x="410" y="-1020.4" font-family="Times,serif" font-size="14.00">&quot;(S)&#45;Malate&quot;</text>
</g>
<!-- &quot;(S)&#45;Malate&quot;&#45;&gt;&quot;(S)&#45;Malate hydro&#45;lyase&quot; -->
<g id="edge12" class="edge"><title>&quot;(S)&#45;Malate&quot;&#45;&gt;&quot;(S)&#45;Malate hydro&#45;lyase&quot;</title>
<path fill="none" stroke="black" d="M410,-1007.83C410,-1000.13 410,-990.974 410,-982.417"/>
<polygon fill="black" stroke="black" points="413.5,-982.413 410,-972.413 406.5,-982.413 413.5,-982.413"/>
</g>
<!-- &quot;Succinyl&#45;CoA:dihydrolipoamide S&#45;succinyltransferase&quot;&#45;&gt;&quot;CoA&quot; -->
<g id="edge18" class="edge"><title>&quot;Succinyl&#45;CoA:dihydrolipoamide S&#45;succinyltransferase&quot;&#45;&gt;&quot;CoA&quot;</title>
<path fill="none" stroke="black" d="M359.44,-503.831C391.3,-491.63 432.706,-475.772 462.311,-464.434"/>
<polygon fill="black" stroke="black" points="463.78,-467.619 471.867,-460.774 461.277,-461.082 463.78,-467.619"/>
</g>
<!-- &quot;S&#45;Succinyldihydrolipoamide&quot; -->
<g id="node18" class="node"><title>&quot;S&#45;Succinyldihydrolipoamide&quot;</title>
<ellipse fill="none" stroke="black" cx="312" cy="-450" rx="123.94" ry="18"/>
<text text-anchor="middle" x="312" y="-444.4" font-family="Times,serif" font-size="14.00">&quot;S&#45;Succinyldihydrolipoamide&quot;</text>
</g>
<!-- &quot;Succinyl&#45;CoA:dihydrolipoamide S&#45;succinyltransferase&quot;&#45;&gt;&quot;S&#45;Succinyldihydrolipoamide&quot; -->
<g id="edge16" class="edge"><title>&quot;Succinyl&#45;CoA:dihydrolipoamide S&#45;succinyltransferase&quot;&#45;&gt;&quot;S&#45;Succinyldihydrolipoamide&quot;</title>
<path fill="none" stroke="black" d="M312,-503.831C312,-496.131 312,-486.974 312,-478.417"/>
<polygon fill="black" stroke="black" points="315.5,-478.413 312,-468.413 308.5,-478.413 315.5,-478.413"/>
</g>
<!-- &quot;Dihydrolipoamide&quot; -->
<g id="node16" class="node"><title>&quot;Dihydrolipoamide&quot;</title>
<ellipse fill="none" stroke="black" cx="151" cy="-594" rx="84.7776" ry="18"/>
<text text-anchor="middle" x="151" y="-588.4" font-family="Times,serif" font-size="14.00">&quot;Dihydrolipoamide&quot;</text>
</g>
<!-- &quot;Dihydrolipoamide&quot;&#45;&gt;&quot;Succinyl&#45;CoA:dihydrolipoamide S&#45;succinyltransferase&quot; -->
<g id="edge14" class="edge"><title>&quot;Dihydrolipoamide&quot;&#45;&gt;&quot;Succinyl&#45;CoA:dihydrolipoamide S&#45;succinyltransferase&quot;</title>
<path fill="none" stroke="black" d="M187.533,-577.662C209.648,-567.772 238.147,-555.027 262.294,-544.229"/>
<polygon fill="black" stroke="black" points="263.955,-547.32 271.655,-540.042 261.098,-540.93 263.955,-547.32"/>
</g>
<!-- &quot;2&#45;Oxoglutarate:lipoamde 2&#45;oxidoreductase(decarboxylating andacceptor&#45;succinylating) (R)&quot; -->
<g id="node40" class="node"><title>&quot;2&#45;Oxoglutarate:lipoamde 2&#45;oxidoreductase(decarboxylating andacceptor&#45;succinylating) (R)&quot;</title>
<polygon fill="none" stroke="black" points="590,-396 34,-396 34,-360 590,-360 590,-396"/>
<text text-anchor="middle" x="312" y="-372.4" font-family="Times,serif" font-size="14.00">&quot;2&#45;Oxoglutarate:lipoamde 2&#45;oxidoreductase(decarboxylating andacceptor&#45;succinylating) (R)&quot;</text>
</g>
<!-- &quot;S&#45;Succinyldihydrolipoamide&quot;&#45;&gt;&quot;2&#45;Oxoglutarate:lipoamde 2&#45;oxidoreductase(decarboxylating andacceptor&#45;succinylating) (R)&quot; -->
<g id="edge42" class="edge"><title>&quot;S&#45;Succinyldihydrolipoamide&quot;&#45;&gt;&quot;2&#45;Oxoglutarate:lipoamde 2&#45;oxidoreductase(decarboxylating andacceptor&#45;succinylating) (R)&quot;</title>
<path fill="none" stroke="black" d="M312,-431.831C312,-424.131 312,-414.974 312,-406.417"/>
<polygon fill="black" stroke="black" points="315.5,-406.413 312,-396.413 308.5,-406.413 315.5,-406.413"/>
</g>
<!-- &quot;L&#45;Glutamate:NAD+ oxidoreductase (deaminating) (R)&quot; -->
<g id="node22" class="node"><title>&quot;L&#45;Glutamate:NAD+ oxidoreductase (deaminating) (R)&quot;</title>
<polygon fill="none" stroke="black" points="347,-252 7,-252 7,-216 347,-216 347,-252"/>
<text text-anchor="middle" x="177" y="-228.4" font-family="Times,serif" font-size="14.00">&quot;L&#45;Glutamate:NAD+ oxidoreductase (deaminating) (R)&quot;</text>
</g>
<!-- &quot;L&#45;Glutamate&quot; -->
<g id="node27" class="node"><title>&quot;L&#45;Glutamate&quot;</title>
<ellipse fill="none" stroke="black" cx="177" cy="-162" rx="63.7993" ry="18"/>
<text text-anchor="middle" x="177" y="-156.4" font-family="Times,serif" font-size="14.00">&quot;L&#45;Glutamate&quot;</text>
</g>
<!-- &quot;L&#45;Glutamate:NAD+ oxidoreductase (deaminating) (R)&quot;&#45;&gt;&quot;L&#45;Glutamate&quot; -->
<g id="edge26" class="edge"><title>&quot;L&#45;Glutamate:NAD+ oxidoreductase (deaminating) (R)&quot;&#45;&gt;&quot;L&#45;Glutamate&quot;</title>
<path fill="none" stroke="black" d="M177,-215.831C177,-208.131 177,-198.974 177,-190.417"/>
<polygon fill="black" stroke="black" points="180.5,-190.413 177,-180.413 173.5,-190.413 180.5,-190.413"/>
</g>
<!-- &quot;2&#45;Oxoglutarate&quot; -->
<g id="node23" class="node"><title>&quot;2&#45;Oxoglutarate&quot;</title>
<ellipse fill="none" stroke="black" cx="239" cy="-306" rx="72.0111" ry="18"/>
<text text-anchor="middle" x="239" y="-300.4" font-family="Times,serif" font-size="14.00">&quot;2&#45;Oxoglutarate&quot;</text>
</g>
<!-- &quot;2&#45;Oxoglutarate&quot;&#45;&gt;&quot;L&#45;Glutamate:NAD+ oxidoreductase (deaminating) (R)&quot; -->
<g id="edge22" class="edge"><title>&quot;2&#45;Oxoglutarate&quot;&#45;&gt;&quot;L&#45;Glutamate:NAD+ oxidoreductase (deaminating) (R)&quot;</title>
<path fill="none" stroke="black" d="M223.674,-288.202C216.278,-279.613 207.267,-269.149 199.142,-259.713"/>
<polygon fill="black" stroke="black" points="201.758,-257.387 192.58,-252.093 196.453,-261.955 201.758,-257.387"/>
</g>
<!-- &quot;NH3&quot; -->
<g id="node25" class="node"><title>&quot;NH3&quot;</title>
<ellipse fill="none" stroke="black" cx="115" cy="-306" rx="34.2387" ry="18"/>
<text text-anchor="middle" x="115" y="-300.4" font-family="Times,serif" font-size="14.00">&quot;NH3&quot;</text>
</g>
<!-- &quot;NH3&quot;&#45;&gt;&quot;L&#45;Glutamate:NAD+ oxidoreductase (deaminating) (R)&quot; -->
<g id="edge24" class="edge"><title>&quot;NH3&quot;&#45;&gt;&quot;L&#45;Glutamate:NAD+ oxidoreductase (deaminating) (R)&quot;</title>
<path fill="none" stroke="black" d="M129.38,-289.301C136.945,-280.516 146.384,-269.554 154.859,-259.712"/>
<polygon fill="black" stroke="black" points="157.522,-261.984 161.395,-252.122 152.217,-257.416 157.522,-261.984"/>
</g>
<!-- &quot;L&#45;Glutamate 5&#45;semialdehyde:NAD+ oxidoreductase (R)&quot; -->
<g id="node29" class="node"><title>&quot;L&#45;Glutamate 5&#45;semialdehyde:NAD+ oxidoreductase (R)&quot;</title>
<polygon fill="none" stroke="black" points="354,-108 1.7053e-13,-108 0,-72 354,-72 354,-108"/>
<text text-anchor="middle" x="177" y="-84.4" font-family="Times,serif" font-size="14.00">&quot;L&#45;Glutamate 5&#45;semialdehyde:NAD+ oxidoreductase (R)&quot;</text>
</g>
<!-- &quot;L&#45;Glutamate&quot;&#45;&gt;&quot;L&#45;Glutamate 5&#45;semialdehyde:NAD+ oxidoreductase (R)&quot; -->
<g id="edge30" class="edge"><title>&quot;L&#45;Glutamate&quot;&#45;&gt;&quot;L&#45;Glutamate 5&#45;semialdehyde:NAD+ oxidoreductase (R)&quot;</title>
<path fill="none" stroke="black" d="M177,-143.831C177,-136.131 177,-126.974 177,-118.417"/>
<polygon fill="black" stroke="black" points="180.5,-118.413 177,-108.413 173.5,-118.413 180.5,-118.413"/>
</g>
<!-- &quot;L&#45;Glutamate 5&#45;semialdehyde&quot; -->
<g id="node30" class="node"><title>&quot;L&#45;Glutamate 5&#45;semialdehyde&quot;</title>
<ellipse fill="none" stroke="black" cx="177" cy="-18" rx="125.072" ry="18"/>
<text text-anchor="middle" x="177" y="-12.4" font-family="Times,serif" font-size="14.00">&quot;L&#45;Glutamate 5&#45;semialdehyde&quot;</text>
</g>
<!-- &quot;L&#45;Glutamate 5&#45;semialdehyde:NAD+ oxidoreductase (R)&quot;&#45;&gt;&quot;L&#45;Glutamate 5&#45;semialdehyde&quot; -->
<g id="edge28" class="edge"><title>&quot;L&#45;Glutamate 5&#45;semialdehyde:NAD+ oxidoreductase (R)&quot;&#45;&gt;&quot;L&#45;Glutamate 5&#45;semialdehyde&quot;</title>
<path fill="none" stroke="black" d="M177,-71.8314C177,-64.131 177,-54.9743 177,-46.4166"/>
<polygon fill="black" stroke="black" points="180.5,-46.4132 177,-36.4133 173.5,-46.4133 180.5,-46.4132"/>
</g>
<!-- &quot;Succinate:(acceptor) oxidoreductase (R)&quot;&#45;&gt;&quot;Succinate&quot; -->
<g id="edge34" class="edge"><title>&quot;Succinate:(acceptor) oxidoreductase (R)&quot;&#45;&gt;&quot;Succinate&quot;</title>
<path fill="none" stroke="black" d="M453.626,-791.831C447.428,-783.411 439.948,-773.249 433.164,-764.034"/>
<polygon fill="black" stroke="black" points="435.933,-761.892 427.186,-755.913 430.296,-766.042 435.933,-761.892"/>
</g>
<!-- &quot;FAD&quot; -->
<g id="node34" class="node"><title>&quot;FAD&quot;</title>
<ellipse fill="none" stroke="black" cx="521" cy="-738" rx="36.0055" ry="18"/>
<text text-anchor="middle" x="521" y="-732.4" font-family="Times,serif" font-size="14.00">&quot;FAD&quot;</text>
</g>
<!-- &quot;Succinate:(acceptor) oxidoreductase (R)&quot;&#45;&gt;&quot;FAD&quot; -->
<g id="edge32" class="edge"><title>&quot;Succinate:(acceptor) oxidoreductase (R)&quot;&#45;&gt;&quot;FAD&quot;</title>
<path fill="none" stroke="black" d="M480.626,-791.831C487.133,-783.156 495.026,-772.632 502.101,-763.199"/>
<polygon fill="black" stroke="black" points="505.105,-765.026 508.305,-754.926 499.505,-760.826 505.105,-765.026"/>
</g>
<!-- &quot;FADH2&quot; -->
<g id="node38" class="node"><title>&quot;FADH2&quot;</title>
<ellipse fill="none" stroke="black" cx="525" cy="-882" rx="46.2414" ry="18"/>
<text text-anchor="middle" x="525" y="-876.4" font-family="Times,serif" font-size="14.00">&quot;FADH2&quot;</text>
</g>
<!-- &quot;FADH2&quot;&#45;&gt;&quot;Succinate:(acceptor) oxidoreductase (R)&quot; -->
<g id="edge38" class="edge"><title>&quot;FADH2&quot;&#45;&gt;&quot;Succinate:(acceptor) oxidoreductase (R)&quot;</title>
<path fill="none" stroke="black" d="M510.96,-864.571C504.062,-856.008 495.61,-845.516 487.966,-836.027"/>
<polygon fill="black" stroke="black" points="490.516,-833.612 481.517,-828.021 485.064,-838.004 490.516,-833.612"/>
</g>
<!-- &quot;2&#45;Oxoglutarate:lipoamde 2&#45;oxidoreductase(decarboxylating andacceptor&#45;succinylating) (R)&quot;&#45;&gt;&quot;2&#45;Oxoglutarate&quot; -->
<g id="edge44" class="edge"><title>&quot;2&#45;Oxoglutarate:lipoamde 2&#45;oxidoreductase(decarboxylating andacceptor&#45;succinylating) (R)&quot;&#45;&gt;&quot;2&#45;Oxoglutarate&quot;</title>
<path fill="none" stroke="black" d="M293.579,-359.831C284.626,-351.001 273.731,-340.256 264.037,-330.694"/>
<polygon fill="black" stroke="black" points="266.488,-328.195 256.91,-323.665 261.572,-333.179 266.488,-328.195"/>
</g>
<!-- &quot;Lipoamide&quot; -->
<g id="node41" class="node"><title>&quot;Lipoamide&quot;</title>
<ellipse fill="none" stroke="black" cx="386" cy="-306" rx="56.9827" ry="18"/>
<text text-anchor="middle" x="386" y="-300.4" font-family="Times,serif" font-size="14.00">&quot;Lipoamide&quot;</text>
</g>
<!-- &quot;2&#45;Oxoglutarate:lipoamde 2&#45;oxidoreductase(decarboxylating andacceptor&#45;succinylating) (R)&quot;&#45;&gt;&quot;Lipoamide&quot; -->
<g id="edge40" class="edge"><title>&quot;2&#45;Oxoglutarate:lipoamde 2&#45;oxidoreductase(decarboxylating andacceptor&#45;succinylating) (R)&quot;&#45;&gt;&quot;Lipoamide&quot;</title>
<path fill="none" stroke="black" d="M330.673,-359.831C339.885,-350.868 351.125,-339.932 361.062,-330.264"/>
<polygon fill="black" stroke="black" points="363.625,-332.654 368.352,-323.171 358.744,-327.636 363.625,-332.654"/>
</g>
<!-- &quot;(S)&#45;Malate:NADP+ oxidoreductase(oxaloacetate&#45;decarboxylating) (R)&quot; -->
<g id="node45" class="node"><title>&quot;(S)&#45;Malate:NADP+ oxidoreductase(oxaloacetate&#45;decarboxylating) (R)&quot;</title>
<polygon fill="none" stroke="black" points="627,-1116 193,-1116 193,-1080 627,-1080 627,-1116"/>
<text text-anchor="middle" x="410" y="-1092.4" font-family="Times,serif" font-size="14.00">&quot;(S)&#45;Malate:NADP+ oxidoreductase(oxaloacetate&#45;decarboxylating) (R)&quot;</text>
</g>
<!-- &quot;(S)&#45;Malate:NADP+ oxidoreductase(oxaloacetate&#45;decarboxylating) (R)&quot;&#45;&gt;&quot;(S)&#45;Malate&quot; -->
<g id="edge46" class="edge"><title>&quot;(S)&#45;Malate:NADP+ oxidoreductase(oxaloacetate&#45;decarboxylating) (R)&quot;&#45;&gt;&quot;(S)&#45;Malate&quot;</title>
<path fill="none" stroke="black" d="M410,-1079.83C410,-1072.13 410,-1062.97 410,-1054.42"/>
<polygon fill="black" stroke="black" points="413.5,-1054.41 410,-1044.41 406.5,-1054.41 413.5,-1054.41"/>
</g>
<!-- &quot;Pyruvate&quot; -->
<g id="node47" class="node"><title>&quot;Pyruvate&quot;</title>
<ellipse fill="none" stroke="black" cx="410" cy="-1170" rx="48.7731" ry="18"/>
<text text-anchor="middle" x="410" y="-1164.4" font-family="Times,serif" font-size="14.00">&quot;Pyruvate&quot;</text>
</g>
<!-- &quot;Pyruvate&quot;&#45;&gt;&quot;(S)&#45;Malate:NADP+ oxidoreductase(oxaloacetate&#45;decarboxylating) (R)&quot; -->
<g id="edge48" class="edge"><title>&quot;Pyruvate&quot;&#45;&gt;&quot;(S)&#45;Malate:NADP+ oxidoreductase(oxaloacetate&#45;decarboxylating) (R)&quot;</title>
<path fill="none" stroke="black" d="M410,-1151.83C410,-1144.13 410,-1134.97 410,-1126.42"/>
<polygon fill="black" stroke="black" points="413.5,-1126.41 410,-1116.41 406.5,-1126.41 413.5,-1126.41"/>
</g>
</g>
</svg>
